<svg id="svg" xmlns="http://www.w3.org/2000/svg" xmlns:xlink="http://www.w3.org/1999/xlink" width="400" height="490.9803921568627" viewBox="0, 0, 400,490.9803921568627"><g id="svgg"><path id="path0" d="M186.234 45.583 C 176.317 52.152,163.378 66.474,154.518 80.690 C 150.453 87.212,146.670 92.541,146.112 92.532 C 145.554 92.523,141.602 91.455,137.329 90.158 C 99.631 78.723,90.248 88.648,90.212 140.000 L 90.196 161.569 75.760 161.569 C 58.245 161.569,54.321 163.146,50.846 171.586 C 45.850 183.719,46.022 220.827,51.185 244.965 C 52.057 249.040,51.846 249.173,42.903 250.161 C 21.628 252.513,18.839 255.265,18.829 273.912 C 18.806 318.558,42.039 370.019,76.472 401.588 C 185.785 501.811,362.223 435.416,378.085 288.089 C 380.124 269.155,379.435 262.590,374.793 256.688 C 371.602 252.631,369.214 251.925,352.800 250.181 L 344.031 249.249 346.368 241.095 C 349.531 230.056,349.875 185.687,346.877 175.373 C 343.500 163.752,341.110 162.438,322.220 161.819 L 305.937 161.285 306.888 147.701 C 308.424 125.785,302.101 95.130,294.660 88.418 C 290.446 84.616,276.481 84.965,261.199 89.256 C 255.172 90.948,250.208 92.205,250.166 92.049 C 249.337 88.898,232.486 65.835,226.006 58.981 C 208.513 40.483,198.849 37.228,186.234 45.583 M210.957 67.921 C 219.861 76.826,233.725 95.766,233.725 99.026 C 233.725 99.733,231.527 101.448,228.840 102.838 C 226.153 104.227,220.996 108.092,217.379 111.425 C 210.876 117.420,210.738 117.464,204.738 115.401 C 200.437 113.923,197.269 113.755,193.846 114.824 C 191.192 115.654,187.784 116.711,186.275 117.173 C 184.765 117.635,183.529 117.260,183.529 116.341 C 183.529 115.421,178.947 111.399,173.347 107.402 C 161.774 99.144,161.791 100.690,173.097 83.922 C 180.869 72.396,194.945 58.039,198.474 58.039 C 199.905 58.039,205.522 62.486,210.957 67.921 M285.315 108.627 C 290.445 127.611,291.294 142.212,288.074 156.075 L 286.254 163.914 272.213 168.430 C 262.113 171.678,257.994 172.413,257.540 171.051 C 256.167 166.933,241.348 146.166,233.655 137.582 C 225.785 128.798,225.607 128.395,228.278 125.443 C 236.746 116.086,259.924 106.129,282.541 102.133 C 283.076 102.038,284.324 104.961,285.315 108.627 M131.771 106.774 C 145.178 110.489,162.680 119.210,167.917 124.785 L 171.488 128.585 163.627 137.626 C 156.921 145.339,146.508 159.930,140.239 170.402 C 138.579 173.173,138.123 173.154,127.690 169.868 C 121.735 167.992,115.350 166.040,113.501 165.529 C 105.505 163.321,104.735 128.003,112.193 105.490 C 113.115 102.707,118.329 103.049,131.771 106.774 M216.683 145.670 C 232.629 161.617,233.690 164.025,223.922 162.099 C 215.245 160.388,181.543 160.404,172.799 162.123 C 163.716 163.908,165.336 160.749,182.094 143.990 C 198.317 127.767,198.803 127.791,216.683 145.670 M224.680 180.285 C 304.626 200.732,332.584 299.763,274.741 357.605 C 222.711 409.636,136.955 396.860,104.490 332.240 C 63.412 250.477,136.724 157.790,224.680 180.285 M98.143 180.424 C 108.582 182.218,120.784 185.236,120.784 186.023 C 120.784 186.308,117.172 189.920,112.756 194.051 C 102.000 204.112,87.775 226.051,83.095 239.800 C 79.662 249.881,78.881 250.980,75.142 250.980 C 67.157 250.980,61.519 213.770,65.311 186.101 L 66.309 178.824 77.572 178.824 C 83.767 178.824,93.024 179.544,98.143 180.424 M331.434 186.667 C 333.620 198.393,331.643 228.457,327.900 240.392 C 323.517 254.370,320.217 254.725,315.478 241.729 C 309.647 225.736,300.812 211.676,288.181 198.287 C 276.859 186.287,276.224 185.263,279.456 184.237 C 288.515 181.362,306.288 179.075,317.608 179.328 L 330.117 179.608 331.434 186.667 M184.314 193.931 C 182.588 194.380,178.529 195.427,175.294 196.258 L 169.412 197.768 169.412 282.413 C 169.412 349.073,169.828 367.063,171.373 367.080 C 172.451 367.092,174.922 367.527,176.863 368.048 L 180.392 368.993 180.392 301.359 L 180.392 233.725 200.392 233.717 C 233.973 233.702,247.666 223.997,240.049 205.609 C 236.599 197.281,200.498 189.717,184.314 193.931 M149.646 208.142 C 143.875 211.883,142.761 213.696,138.819 225.764 L 134.425 239.216 132.563 233.725 C 130.179 226.699,129.444 226.812,123.907 235.056 C 105.836 261.963,106.754 306.085,125.918 331.621 C 128.123 334.559,128.236 334.560,132.103 331.642 L 136.042 328.671 132.393 322.890 C 122.303 306.907,118.627 280.645,123.700 260.784 C 126.393 250.241,127.488 250.425,130.996 262.011 C 134.448 273.414,134.731 273.173,141.176 253.333 C 143.979 244.706,146.891 236.976,147.646 236.157 C 148.434 235.302,149.020 260.419,149.020 295.034 L 149.020 355.402 153.725 358.182 L 158.431 360.962 158.431 282.442 C 158.431 239.256,157.902 203.933,157.255 203.946 C 156.608 203.960,153.184 205.848,149.646 208.142 M222.460 206.335 C 229.582 208.450,230.588 209.260,230.588 212.878 C 230.588 221.691,227.629 222.745,202.894 222.745 L 180.392 222.745 180.392 214.233 C 180.392 207.445,180.948 205.575,183.137 205.003 C 189.924 203.229,214.845 204.074,222.460 206.335 M252.549 281.275 C 252.549 320.691,253.103 352.941,253.779 352.941 C 261.399 352.941,291.458 305.052,286.776 300.371 C 282.838 296.433,276.428 298.035,275.459 303.201 C 274.210 309.860,265.415 327.843,263.407 327.843 C 262.552 327.843,261.961 305.513,261.961 273.235 L 261.961 218.626 257.255 214.118 L 252.549 209.609 252.549 281.275 M191.373 307.451 L 191.373 371.765 202.745 371.756 C 226.134 371.738,243.137 364.732,243.137 355.112 C 243.137 347.712,242.392 347.072,237.604 350.361 C 233.414 353.239,215.401 358.935,208.627 359.523 L 203.137 360.000 202.726 301.569 L 202.315 243.137 196.844 243.137 L 191.373 243.137 191.373 307.451 M218.429 248.235 C 210.507 256.722,213.609 268.351,224.679 271.667 C 232.246 273.934,233.522 280.195,226.116 278.713 C 215.679 276.626,211.739 281.206,219.035 286.945 C 224.609 291.329,230.912 291.041,236.742 286.135 C 245.280 278.951,241.582 265.160,230.463 262.718 C 227.827 262.139,225.262 260.601,224.763 259.302 C 223.630 256.347,227.479 253.757,229.953 255.810 C 232.050 257.550,240.000 255.091,240.000 252.702 C 240.000 245.812,223.818 242.462,218.429 248.235 M65.652 267.674 L 75.294 268.682 75.294 283.258 C 75.294 340.808,115.395 391.780,170.277 403.990 C 182.932 406.805,181.790 405.182,184.444 424.128 L 185.516 431.786 176.307 430.636 C 102.467 421.410,41.941 357.048,36.595 282.069 L 35.624 268.452 41.734 267.823 C 52.867 266.677,55.927 266.658,65.652 267.674 M361.959 268.887 C 363.261 270.189,358.881 301.663,355.902 312.415 C 338.138 376.517,282.075 424.082,216.059 431.061 L 203.883 432.348 202.460 426.762 C 201.677 423.690,200.576 418.238,200.012 414.647 L 198.986 408.117 209.689 407.000 C 273.429 400.348,320.405 350.408,322.513 287.059 L 323.114 269.020 329.008 267.965 C 334.681 266.951,360.752 267.680,361.959 268.887 M220.911 302.007 C 209.908 307.983,213.850 327.843,226.039 327.843 C 227.467 327.843,229.436 328.808,230.416 329.988 C 232.886 332.964,228.240 337.103,225.502 334.365 C 222.392 331.255,213.245 332.020,214.401 335.294 C 217.959 345.377,230.410 348.556,237.718 341.248 C 245.088 333.878,239.965 320.071,229.050 317.888 C 226.215 317.321,224.314 315.961,224.314 314.500 C 224.314 311.521,229.368 309.279,230.233 311.875 C 230.991 314.150,241.569 314.361,241.569 312.102 C 241.569 303.843,228.916 297.660,220.911 302.007 " stroke="none" fill="#000000" fill-rule="evenodd"></path></g></svg>